<svg preserveAspectRatio="none" overflow="visible" style="display: block;" width="22" height="22" viewBox="0 0 22 22" fill="none" xmlns="http://www.w3.org/2000/svg">
<g id="sparkle">
<path id="Vector" d="M11 1.65C11.4333 1.65 11.9581 1.87096 12.1602 2.41592L12.5748 3.53526H12.5759C13.6536 6.44177 16.1998 8.80463 19.5444 9.93223C20.0026 10.0868 20.3052 10.4612 20.3457 10.9012C20.3856 11.337 20.1596 11.7617 19.7409 11.9839L19.7205 11.9947L19.699 12.0033L19.5852 12.0527L19.5647 12.0613L19.5444 12.0678C16.2 13.1946 13.6534 15.5565 12.5759 18.4626L12.1602 19.5841C11.972 20.0915 11.5003 20.3193 11.0913 20.3468C10.6882 20.3737 10.2004 20.2175 9.93438 19.7806L9.92148 19.7581L9.90967 19.7335L9.86026 19.6325L9.84951 19.6088L9.83984 19.5841L9.42305 18.4615C8.3451 15.5561 5.79929 13.1946 2.45566 12.0678C1.99739 11.9132 1.6948 11.5388 1.6543 11.0988C1.61436 10.663 1.84045 10.2382 2.25908 10.016L2.2795 10.0053L2.30098 9.99668L2.41484 9.94727L2.43526 9.93868L2.45566 9.93223C5.79957 8.80459 8.34589 6.44218 9.42412 3.53632L9.83984 2.41592C10.0419 1.87096 10.5667 1.65 11 1.65Z" fill="#171717"/>
</g>
</svg>
