<svg preserveAspectRatio="none" overflow="visible" style="display: block;" width="11.375" height="11.375" viewBox="0 0 11.375 11.375" fill="none" xmlns="http://www.w3.org/2000/svg">
<path id="Vector" d="M8.18453 4.06547C8.22521 4.1061 8.25748 4.15435 8.2795 4.20746C8.30151 4.26058 8.31285 4.31751 8.31285 4.375C8.31285 4.43249 8.30151 4.48942 8.2795 4.54254C8.25748 4.59565 8.22521 4.6439 8.18453 4.68453L5.12203 7.74703C5.0814 7.78771 5.03315 7.81998 4.98004 7.842C4.92693 7.86401 4.87 7.87534 4.8125 7.87534C4.75501 7.87534 4.69808 7.86401 4.64497 7.842C4.59185 7.81998 4.5436 7.78771 4.50297 7.74703L3.19047 6.43453C3.10838 6.35244 3.06226 6.2411 3.06226 6.125C3.06226 6.0089 3.10838 5.89756 3.19047 5.81547C3.27256 5.73338 3.38391 5.68726 3.5 5.68726C3.6161 5.68726 3.72744 5.73338 3.80953 5.81547L4.8125 6.81898L7.56547 4.06547C7.6061 4.02479 7.65435 3.99252 7.70747 3.97051C7.76058 3.94849 7.81751 3.93716 7.875 3.93716C7.9325 3.93716 7.98943 3.94849 8.04254 3.97051C8.09565 3.99252 8.1439 4.02479 8.18453 4.06547ZM11.375 5.6875C11.375 6.81238 11.0414 7.912 10.4165 8.84731C9.79154 9.78261 8.90327 10.5116 7.86401 10.9421C6.82476 11.3725 5.68119 11.4852 4.57793 11.2657C3.47466 11.0463 2.46124 10.5046 1.66583 9.70917C0.870422 8.91376 0.32874 7.90034 0.109286 6.79708C-0.110167 5.69381 0.0024643 4.55024 0.432938 3.51099C0.863411 2.47173 1.59239 1.58347 2.5277 0.958517C3.463 0.333566 4.56262 0 5.6875 0C7.19543 0.0015924 8.64115 0.601321 9.70741 1.66759C10.7737 2.73386 11.3734 4.17957 11.375 5.6875ZM10.5 5.6875C10.5 4.73568 10.2178 3.80523 9.68895 3.01382C9.16015 2.22241 8.40854 1.60558 7.52917 1.24133C6.6498 0.877083 5.68216 0.781779 4.74863 0.967471C3.8151 1.15316 2.95759 1.61151 2.28455 2.28455C1.61151 2.95759 1.15316 3.81509 0.967473 4.74863C0.781782 5.68216 0.877086 6.64979 1.24133 7.52916C1.60558 8.40853 2.22241 9.16014 3.01382 9.68895C3.80523 10.2178 4.73568 10.5 5.6875 10.5C6.96341 10.4986 8.18665 9.99106 9.08886 9.08885C9.99106 8.18665 10.4986 6.96341 10.5 5.6875Z" fill="#16A34A" style="fill:#16A34A;fill:color(display-p3 0.0863 0.6392 0.2902);fill-opacity:1;"/>
</svg>
